<svg width="73" height="72" viewBox="0 0 73 72" fill="none" xmlns="http://www.w3.org/2000/svg">
<path d="M22.9353 57.7374H17.2033C8.42625 57.1104 4.48571 50.3635 4.48571 44.3629C4.48571 38.3623 8.42629 31.5855 17.054 30.9884C18.278 30.869 19.3527 31.8243 19.4423 33.0782C19.5318 34.3022 18.6065 35.3769 17.3527 35.4665C11.561 35.8844 8.96377 40.2431 8.96377 44.3927C8.96377 48.5424 11.561 52.9011 17.3527 53.319H22.9353C24.1593 53.319 25.1743 54.334 25.1743 55.558C25.1743 56.782 24.1593 57.7374 22.9353 57.7374Z" fill="#292D32"/>
<path d="M50.4294 57.7371C50.3697 57.7371 50.3399 57.7371 50.2802 57.7371C49.0562 57.7371 47.9218 56.7221 47.9218 55.4981C47.9218 54.2144 48.8771 53.2591 50.131 53.2591C53.803 53.2591 57.0869 51.9754 59.6543 49.6766C64.3115 45.6165 64.61 39.7652 63.3562 35.6454C62.1023 31.5554 58.6094 26.8684 52.5192 26.122C51.5341 26.0026 50.7578 25.2563 50.5787 24.2711C49.3845 17.1062 45.5335 12.1505 39.6822 10.3592C33.6517 8.47846 26.6061 10.3294 22.2176 14.9269C17.9485 19.3751 16.9634 25.6145 19.4412 32.4809C19.8592 33.6452 19.2623 34.9289 18.098 35.3468C16.9337 35.7648 15.6499 35.1677 15.2319 34.0034C12.2167 25.5847 13.59 17.5241 18.9935 11.8519C24.5165 6.06031 33.383 3.76154 40.9957 6.09014C47.9815 8.23961 52.9073 14.0014 54.6985 22.0022C60.7887 23.3755 65.6847 28.0028 67.6252 34.3915C69.7448 41.3474 67.8342 48.5123 62.6098 53.0501C59.296 56.0355 54.9672 57.7371 50.4294 57.7371Z" fill="#292D32"/>
<path d="M36.4881 66.5142C30.4875 66.5142 24.875 63.3199 21.8001 58.1552C21.4717 57.6477 21.1433 57.0506 20.8746 56.3938C19.8596 54.2742 19.3222 51.8561 19.3222 49.3483C19.3222 39.8847 27.0244 32.1824 36.4881 32.1824C45.9517 32.1824 53.654 39.8847 53.654 49.3483C53.654 51.8859 53.1167 54.2742 52.0419 56.4834C51.8031 57.0506 51.4747 57.6477 51.1165 58.2149C48.1013 63.3199 42.4887 66.5142 36.4881 66.5142ZM36.4881 36.6605C29.5023 36.6605 23.8002 42.3626 23.8002 49.3483C23.8002 51.1993 24.1883 52.9308 24.9347 54.513C25.1735 55.0205 25.3824 55.4385 25.6213 55.8266C27.8901 59.6777 32.0398 62.0362 36.4582 62.0362C40.8765 62.0362 45.0262 59.6777 47.2652 55.8863C47.5339 55.4385 47.7729 55.0205 47.952 54.6026C48.758 52.9606 49.146 51.2291 49.146 49.3782C49.1759 42.3625 43.4738 36.6605 36.4881 36.6605Z" fill="#292D32"/>
<path d="M34.786 54.5428C34.2188 54.5428 33.6517 54.3338 33.2039 53.886L30.2482 50.9304C29.3824 50.0647 29.3824 48.6317 30.2482 47.7659C31.1139 46.9002 32.5469 46.9002 33.4127 47.7659L34.8458 49.1989L39.6223 44.7806C40.5478 43.9447 41.9509 44.0043 42.7868 44.9C43.6227 45.7956 43.5631 47.2286 42.6674 48.0645L36.3086 53.9457C35.8608 54.3338 35.3234 54.5428 34.786 54.5428Z" fill="#292D32"/>
</svg>
