<svg width="38" height="39" viewBox="0 0 38 39" fill="none" xmlns="http://www.w3.org/2000/svg">
<path d="M18.9341 3.80368C10.3518 3.80368 3.35825 10.7972 3.35825 19.3795C3.35825 27.9619 10.3518 34.9554 18.9341 34.9554C27.5164 34.9554 34.51 27.9619 34.51 19.3795C34.51 10.7972 27.5164 3.80368 18.9341 3.80368ZM26.3794 15.7971L17.5479 24.6286C17.3298 24.8467 17.0339 24.9713 16.7223 24.9713C16.4108 24.9713 16.1149 24.8467 15.8968 24.6286L11.4888 20.2206C11.0371 19.7689 11.0371 19.0213 11.4888 18.5696C11.9405 18.1179 12.6882 18.1179 13.1399 18.5696L16.7223 22.1521L24.7283 14.1461C25.18 13.6944 25.9277 13.6944 26.3794 14.1461C26.8311 14.5978 26.8311 15.3298 26.3794 15.7971Z" fill="#3EBF8F"/>
</svg>
