<svg width="39" height="39" viewBox="0 0 39 39" fill="none" xmlns="http://www.w3.org/2000/svg">
<path d="M19.4678 3.95908C10.8855 3.95908 3.89194 10.9526 3.89194 19.5349C3.89194 28.1172 10.8855 35.1108 19.4678 35.1108C28.0501 35.1108 35.0437 28.1172 35.0437 19.5349C35.0437 10.9526 28.0501 3.95908 19.4678 3.95908ZM26.9131 15.9525L18.0816 24.784C17.8635 25.0021 17.5675 25.1267 17.256 25.1267C16.9445 25.1267 16.6486 25.0021 16.4305 24.784L12.0225 20.376C11.5708 19.9243 11.5708 19.1767 12.0225 18.725C12.4742 18.2733 13.2219 18.2733 13.6736 18.725L17.256 22.3074L25.262 14.3015C25.7137 13.8498 26.4614 13.8498 26.9131 14.3015C27.3648 14.7532 27.3648 15.4852 26.9131 15.9525Z" fill="#3EBF8F"/>
</svg>
